<svg width="24" height="21" viewBox="0 0 24 21" fill="none" xmlns="http://www.w3.org/2000/svg">
<path d="M22.5003 8.999H22.5239C22.9308 8.999 23.2983 9.16699 23.5608 9.43823C23.832 9.7016 24 10.0691 24 10.4759V10.5004V10.4996V10.5232C24 10.93 23.832 11.2975 23.5608 11.56C23.2974 11.8313 22.9299 11.9993 22.523 11.9993H22.4985H22.4994H22.3235L20.9752 19.7593C20.9181 20.1081 20.7354 20.424 20.4616 20.6474L20.4589 20.6491C20.2052 20.867 19.8727 21 19.5096 21H4.48868C4.12556 21 3.79307 20.867 3.53757 20.6474L3.53932 20.6491C3.26636 20.4274 3.08347 20.1139 3.02483 19.7672L3.02395 19.7584L1.6756 11.9984H1.4761C1.06923 11.9984 0.70174 11.8304 0.439244 11.5591C0.300075 11.4245 0.189454 11.2633 0.113987 11.085C0.0385195 10.9067 -0.000247268 10.715 1.18672e-06 10.5214V10.4969V10.4742C1.18672e-06 10.0673 0.167999 9.69985 0.439244 9.43736C0.702615 9.16612 1.07011 8.99813 1.47698 8.99813H1.50148H1.5006L22.5003 8.999ZM5.68041 18.3734C5.77859 18.3667 5.87435 18.3399 5.96178 18.2948C6.04922 18.2496 6.12647 18.187 6.18878 18.1109L6.18965 18.11C6.25613 18.0362 6.30661 17.9494 6.33793 17.8552C6.36925 17.7609 6.38073 17.6612 6.37165 17.5623V17.5649L5.99628 12.6896C5.98958 12.5914 5.96284 12.4957 5.91769 12.4082C5.87254 12.3208 5.80995 12.2435 5.73379 12.1812L5.73291 12.1804C5.6591 12.1139 5.57234 12.0634 5.47807 12.0321C5.38381 12.0008 5.28408 11.9893 5.18517 11.9984H5.18779C5.08962 12.0051 4.99386 12.0318 4.90642 12.077C4.81899 12.1221 4.74173 12.1847 4.67943 12.2609L4.67855 12.2617C4.61208 12.3355 4.5616 12.4223 4.53028 12.5166C4.49895 12.6108 4.48747 12.7106 4.49656 12.8095V12.8068L4.87192 17.6821C4.88441 17.8711 4.97049 18.0476 5.11167 18.1739L5.11255 18.1747C5.24763 18.303 5.4268 18.3744 5.61304 18.3742H5.62266H5.62179L5.68041 18.3734ZM10.4972 17.6244V12.7491V12.7421C10.4975 12.6449 10.4779 12.5487 10.4397 12.4593C10.4015 12.3699 10.3454 12.2893 10.275 12.2224C10.2078 12.152 10.127 12.0959 10.0375 12.0577C9.948 12.0195 9.85166 11.9999 9.75435 12.0001H9.74035C9.64315 11.9998 9.54692 12.0194 9.45755 12.0576C9.36818 12.0958 9.28755 12.1519 9.22061 12.2224C9.15019 12.2895 9.09418 12.3703 9.05597 12.4598C9.01776 12.5493 8.99816 12.6457 8.99836 12.743V17.6323C8.99836 17.837 9.08323 18.0216 9.22061 18.152C9.28778 18.2224 9.36857 18.2784 9.45807 18.3166C9.54757 18.3548 9.64391 18.3744 9.74122 18.3742H9.75522C9.85242 18.3745 9.94865 18.355 10.038 18.3167C10.1274 18.2785 10.208 18.2225 10.275 18.152C10.3463 18.0848 10.4032 18.0037 10.442 17.9138C10.4808 17.8238 10.5008 17.7268 10.5007 17.6288V17.6235L10.4972 17.6244ZM14.9973 17.6244V12.7491V12.7421C14.9975 12.6449 14.978 12.5487 14.9398 12.4593C14.9016 12.3699 14.8455 12.2893 14.775 12.2224C14.7078 12.152 14.6271 12.0959 14.5376 12.0577C14.4481 12.0195 14.3517 11.9999 14.2544 12.0001H14.2404C14.1432 11.9998 14.047 12.0194 13.9576 12.0576C13.8682 12.0958 13.7876 12.1519 13.7207 12.2224C13.6502 12.2895 13.5942 12.3703 13.556 12.4598C13.5178 12.5493 13.4982 12.6457 13.4984 12.743V17.6323C13.4984 17.837 13.5833 18.0216 13.7207 18.152C13.7878 18.2224 13.8686 18.2784 13.9581 18.3166C14.0476 18.3548 14.144 18.3744 14.2413 18.3742H14.2553C14.3525 18.3745 14.4487 18.355 14.5381 18.3167C14.6274 18.2785 14.7081 18.2225 14.775 18.152C14.8464 18.0848 14.9032 18.0037 14.9421 17.9138C14.9809 17.8238 15.0009 17.7268 15.0008 17.6288V17.6235L14.9973 17.6244ZM19.122 17.6821L19.4973 12.8068C19.5058 12.7082 19.494 12.6089 19.4627 12.5151C19.4314 12.4212 19.3813 12.3347 19.3153 12.2609L19.3162 12.2617C19.254 12.1855 19.177 12.1227 19.0897 12.0773C19.0025 12.0318 18.9068 12.0047 18.8087 11.9975H18.8061C18.7075 11.989 18.6082 12.0008 18.5143 12.0321C18.4204 12.0634 18.3339 12.1136 18.2601 12.1795L18.261 12.1786C18.1847 12.2408 18.1219 12.3178 18.0765 12.4051C18.031 12.4924 18.0039 12.588 17.9967 12.6861V12.6887L17.6214 17.564C17.6129 17.6626 17.6247 17.7619 17.656 17.8558C17.6873 17.9497 17.7374 18.0362 17.8033 18.11L17.8025 18.1091C17.8646 18.1854 17.9417 18.2482 18.029 18.2936C18.1162 18.339 18.2118 18.3662 18.31 18.3734H18.38C18.5664 18.3734 18.7458 18.302 18.8813 18.1739C19.0243 18.0478 19.112 17.8705 19.1255 17.6804V17.6778L19.122 17.6821ZM5.57891 3.42023L4.48956 8.24828H2.94258L4.12556 3.08075C4.26818 2.3939 4.6418 1.81205 5.1598 1.40519L5.16592 1.40082C5.6872 0.9781 6.33837 0.748172 7.00952 0.749845H7.04277H7.04102H8.99749V0.742845C8.99749 0.538103 9.08236 0.353486 9.21973 0.223117C9.28696 0.152479 9.36787 0.0962684 9.45752 0.0579099C9.54718 0.0195515 9.64371 -0.000151726 9.74122 8.79732e-07H14.2579C14.4627 8.79732e-07 14.6473 0.0848723 14.7776 0.222242C14.8481 0.289411 14.9041 0.370201 14.9423 0.4597C14.9805 0.549198 15.0001 0.645533 14.9999 0.742845V0.749845H16.9887C17.6896 0.749845 18.3327 0.994834 18.8367 1.40432L18.8315 1.39994C19.3622 1.81417 19.7295 2.40269 19.8683 3.0615L19.8718 3.07987L21.0548 8.24741H19.5078L18.4185 3.41936C18.3393 3.08803 18.1529 2.79214 17.8882 2.57764L17.8856 2.57502C17.6281 2.36235 17.3043 2.2463 16.9704 2.24691H14.9973V2.25391C14.9975 2.3511 14.978 2.44733 14.9398 2.5367C14.9016 2.62607 14.8455 2.70669 14.775 2.77364C14.7078 2.84405 14.6271 2.90006 14.5376 2.93827C14.4481 2.97647 14.3517 2.99607 14.2544 2.99588H9.74122C9.64402 2.99616 9.54779 2.97659 9.45842 2.93838C9.36905 2.90016 9.28842 2.84411 9.22148 2.77364C9.15107 2.70647 9.09505 2.62568 9.05685 2.53618C9.01864 2.44668 8.99904 2.35034 8.99924 2.25303V2.24603H7.02614C6.69136 2.24566 6.36698 2.36234 6.10916 2.57589L6.11178 2.57414C5.84905 2.78692 5.66364 3.08025 5.58416 3.40886L5.58241 3.41936L5.57891 3.42023Z" fill="#373737"/>
</svg>
