<svg width="24" height="24" viewBox="0 0 24 24" fill="none" xmlns="http://www.w3.org/2000/svg">
<path d="M2 12C2 12.3183 2.1317 12.6235 2.36612 12.8485C2.60054 13.0736 2.91848 13.2 3.25 13.2H12.7375L9.8625 15.948C9.74534 16.0596 9.65235 16.1923 9.58889 16.3385C9.52542 16.4847 9.49275 16.6416 9.49275 16.8C9.49275 16.9584 9.52542 17.1153 9.58889 17.2615C9.65235 17.4077 9.74534 17.5404 9.8625 17.652C9.9787 17.7645 10.117 17.8537 10.2693 17.9147C10.4216 17.9756 10.585 18.007 10.75 18.007C10.915 18.007 11.0784 17.9756 11.2307 17.9147C11.383 17.8537 11.5213 17.7645 11.6375 17.652L16.6375 12.852C16.7513 12.7379 16.8405 12.6033 16.9 12.456C17.025 12.1638 17.025 11.8362 16.9 11.544C16.8405 11.3967 16.7513 11.2621 16.6375 11.148L11.6375 6.348C11.521 6.23611 11.3826 6.14736 11.2303 6.08681C11.078 6.02626 10.9148 5.99509 10.75 5.99509C10.5852 5.99509 10.422 6.02626 10.2697 6.08681C10.1174 6.14736 9.97905 6.23611 9.8625 6.348C9.74595 6.45989 9.6535 6.59271 9.59043 6.7389C9.52735 6.88509 9.49489 7.04177 9.49489 7.2C9.49489 7.35823 9.52735 7.51491 9.59043 7.6611C9.6535 7.80729 9.74595 7.94011 9.8625 8.052L12.7375 10.8H3.25C2.91848 10.8 2.60054 10.9264 2.36612 11.1515C2.1317 11.3765 2 11.6817 2 12ZM18.25 0H5.75C4.75544 0 3.80161 0.379285 3.09835 1.05442C2.39509 1.72955 2 2.64522 2 3.6V7.2C2 7.51826 2.1317 7.82348 2.36612 8.04853C2.60054 8.27357 2.91848 8.4 3.25 8.4C3.58152 8.4 3.89946 8.27357 4.13388 8.04853C4.3683 7.82348 4.5 7.51826 4.5 7.2V3.6C4.5 3.28174 4.6317 2.97652 4.86612 2.75147C5.10054 2.52643 5.41848 2.4 5.75 2.4H18.25C18.5815 2.4 18.8995 2.52643 19.1339 2.75147C19.3683 2.97652 19.5 3.28174 19.5 3.6V20.4C19.5 20.7183 19.3683 21.0235 19.1339 21.2485C18.8995 21.4736 18.5815 21.6 18.25 21.6H5.75C5.41848 21.6 5.10054 21.4736 4.86612 21.2485C4.6317 21.0235 4.5 20.7183 4.5 20.4V16.8C4.5 16.4817 4.3683 16.1765 4.13388 15.9515C3.89946 15.7264 3.58152 15.6 3.25 15.6C2.91848 15.6 2.60054 15.7264 2.36612 15.9515C2.1317 16.1765 2 16.4817 2 16.8V20.4C2 21.3548 2.39509 22.2705 3.09835 22.9456C3.80161 23.6207 4.75544 24 5.75 24H18.25C19.2446 24 20.1984 23.6207 20.9017 22.9456C21.6049 22.2705 22 21.3548 22 20.4V3.6C22 2.64522 21.6049 1.72955 20.9017 1.05442C20.1984 0.379285 19.2446 0 18.25 0Z" fill="#373737"/>
</svg>
