<svg width="20" height="24" viewBox="0 0 20 24" fill="none" xmlns="http://www.w3.org/2000/svg">
<path d="M13.5357 2.4H2.92855V21.6H17.0714V6H13.5357V2.4ZM2.92855 0H14.7143L19.4286 4.8V21.6C19.4286 22.2365 19.1802 22.847 18.7382 23.2971C18.2961 23.7471 17.6966 24 17.0714 24H2.92855C2.3034 24 1.70385 23.7471 1.2618 23.2971C0.819752 22.847 0.571411 22.2365 0.571411 21.6V2.4C0.571411 1.76348 0.819752 1.15303 1.2618 0.702944C1.70385 0.252856 2.3034 0 2.92855 0ZM5.2857 10.8H14.7143V13.2H5.2857V10.8ZM5.2857 15.6H14.7143V18H5.2857V15.6Z" fill="#373737"/>
</svg>
